# xmcd
#
# Track frame offsets: 
#        150
#        20617
#        37630
#        61598
#        72752
#        87289
#        103800
#        123957
#        143148
#        157973
#        175314
#        190545
#
# Disc length: 2940 seconds
#
# Revision: 0
# Processed by: cddbd v1.5.2PL0 Copyright (c) Steve Scherf et al.
# Submitted via: ExactAudioCopyFreeDBPlugin 1.0
#
DISCID=8e0b7a0c
DTITLE=BB&G - Bellamy Brothers and Gölä - Platinum
DYEAR=2011
DGENRE=Country
TTITLE0=Switzerland
TTITLE1=Reggae Cowboy
TTITLE2=Ain't Just Whistlin' Dixie
TTITLE3=Up And Away
TTITLE4=Do You Love As Good As You Look
TTITLE5=Guilty Of The Crime
TTITLE6=We Dared The Lightning
TTITLE7=Feelin' Alright
TTITLE8=Dancin' Cowboys
TTITLE9=I Need More Of You
TTITLE10=Kids Of The Baby Boom
TTITLE11=Redneck Girl
EXTD=
EXTT0=
EXTT1=
EXTT2=
EXTT3=
EXTT4=
EXTT5=
EXTT6=
EXTT7=
EXTT8=
EXTT9=
EXTT10=
EXTT11=
PLAYORDER=
